<mxfile host="app.diagrams.net" modified="2023-08-31T10:37:01.694Z" agent="Mozilla/5.0 (Windows NT 10.0; Win64; x64) AppleWebKit/537.36 (KHTML, like Gecko) Chrome/116.0.0.0 Safari/537.36 Edg/116.0.1938.62" etag="zUrIYdmFTX1p5K5La10g" version="21.7.1" type="github">
  <diagram id="3228e29e-7158-1315-38df-8450db1d8a1d" name="Page-1">
    <mxGraphModel dx="1467" dy="1620" grid="1" gridSize="10" guides="1" tooltips="1" connect="1" arrows="1" fold="1" page="1" pageScale="1" pageWidth="1169" pageHeight="827" background="none" math="0" shadow="0">
      <root>
        <mxCell id="0" />
        <mxCell id="1" parent="0" />
        <mxCell id="qtrlOo8TX-hKeHI0bpzR-21542" value="" style="rounded=0;whiteSpace=wrap;html=1;fillColor=#000000;strokeColor=#FFFFFF;shadow=1;" vertex="1" parent="1">
          <mxGeometry x="105" y="-20" width="960" height="890" as="geometry" />
        </mxCell>
        <mxCell id="21532" value="" style="ellipse;fillColor=#12AAB5;opacity=60;strokeColor=none;html=1;fontColor=#FFFFFF;" parent="1" vertex="1">
          <mxGeometry x="179.5" y="18.5" width="500" height="500" as="geometry" />
        </mxCell>
        <mxCell id="21533" value="" style="ellipse;fillColor=#e85642;opacity=60;strokeColor=none;html=1;fontColor=#FFFFFF;" parent="1" vertex="1">
          <mxGeometry x="489.5" y="18.5" width="500" height="500" as="geometry" />
        </mxCell>
        <mxCell id="21534" value="Attacker&lt;br&gt;(30 orang)" style="text;fontSize=24;align=center;verticalAlign=middle;html=1;fontColor=#FFFFFF;" parent="1" vertex="1">
          <mxGeometry x="299.5" y="228.5" width="190" height="70" as="geometry" />
        </mxCell>
        <mxCell id="21535" value="Defender&lt;br&gt;(10 + x orang)" style="text;fontSize=24;align=center;verticalAlign=middle;html=1;fontColor=#FFFFFF;" parent="1" vertex="1">
          <mxGeometry x="699.5" y="228.5" width="190" height="70" as="geometry" />
        </mxCell>
        <mxCell id="21537" value="Attacker + Defender&lt;br style=&quot;font-size: 18px;&quot;&gt;(10 orang)" style="text;align=center;html=1;fontColor=#FFFFFF;fontSize=18;" parent="1" vertex="1">
          <mxGeometry x="565" y="248.5" width="40" height="40" as="geometry" />
        </mxCell>
        <mxCell id="qtrlOo8TX-hKeHI0bpzR-21544" value="" style="ellipse;fillColor=#CC6600;opacity=60;strokeColor=none;html=1;fontColor=#FFFFFF;gradientColor=none;" vertex="1" parent="1">
          <mxGeometry x="440" y="540" width="290" height="280" as="geometry" />
        </mxCell>
        <mxCell id="qtrlOo8TX-hKeHI0bpzR-21540" value="Tidak Mahir&lt;br&gt;(10 orang)" style="text;fontSize=24;align=center;verticalAlign=middle;html=1;fontColor=#FFFFFF;" vertex="1" parent="1">
          <mxGeometry x="489" y="645" width="190" height="70" as="geometry" />
        </mxCell>
        <mxCell id="qtrlOo8TX-hKeHI0bpzR-21545" value="Total Pemain = 50 orang" style="text;fontSize=24;align=center;verticalAlign=middle;html=1;fontColor=#FFFFFF;" vertex="1" parent="1">
          <mxGeometry x="820" y="790" width="190" height="70" as="geometry" />
        </mxCell>
      </root>
    </mxGraphModel>
  </diagram>
</mxfile>
